<?xml version="1.0" encoding="UTF-8" standalone="no"?><!DOCTYPE svg PUBLIC "-//W3C//DTD SVG 1.1//EN" "http://www.w3.org/Graphics/SVG/1.1/DTD/svg11.dtd"><svg width="100%" height="100%" viewBox="0 0 794 530" version="1.1" xmlns="http://www.w3.org/2000/svg" xmlns:xlink="http://www.w3.org/1999/xlink" xml:space="preserve" xmlns:serif="http://www.serif.com/" style="fill-rule:evenodd;clip-rule:evenodd;stroke-linejoin:round;stroke-miterlimit:1.41421;"><g id="图层-1" serif:id="图层 1"><path d="M385.804,275.458l0,31.87c0,11.3 1.772,19.351 5.313,24.156c3.54,4.808 9.359,7.208 17.454,7.208c8.094,0 13.912,-2.4 17.452,-7.208c3.541,-4.805 5.313,-12.856 5.313,-24.156l0,-31.87c0,-11.384 -1.772,-19.456 -5.313,-24.22c-3.54,-4.762 -9.358,-7.146 -17.452,-7.146c-8.095,0 -13.914,2.384 -17.454,7.146c-3.541,4.764 -5.313,12.836 -5.313,24.22m-30.605,16.062c0,-14.08 5.332,-26.497 15.997,-37.246c10.667,-10.75 23.124,-16.127 37.375,-16.127c14.249,0 26.706,5.377 37.373,16.127c10.665,10.749 15.999,23.166 15.999,37.246c0,14.082 -5.334,26.496 -15.999,37.246c-10.667,10.749 -23.124,16.125 -37.373,16.125c-14.251,0 -26.708,-5.376 -37.375,-16.125c-10.665,-10.75 -15.997,-23.164 -15.997,-37.246" style="fill:#106eb8;fill-rule:nonzero;"/><path d="M467.967,341.224l0,-5.945l17.58,0l0,-88.91l-17.58,0l0,-5.944l16.567,0c3.203,0 7.272,-0.192 12.204,-0.569c4.931,-0.381 10.137,-0.949 15.62,-1.708l0.127,25.169l2.022,0c4.302,-8.432 9.359,-14.734 15.178,-18.91c5.817,-4.174 12.437,-6.259 19.857,-6.259c5.733,0 10.307,1.497 13.721,4.489c3.418,2.994 5.122,7.019 5.122,12.078c0,4.3 -1.2,7.76 -3.604,10.37c-2.404,2.616 -5.587,3.923 -9.55,3.923c-4.804,0 -8.432,-1.013 -10.876,-3.036c-2.446,-2.023 -3.668,-5.015 -3.668,-8.98l0,-2.277c0,-1.852 -0.21,-3.18 -0.632,-3.983c-0.421,-0.801 -1.056,-1.203 -1.896,-1.203c-5.988,0 -11.677,3.902 -17.074,11.699c-5.396,7.8 -8.095,16.34 -8.095,25.611l0,48.44l22.767,0l0,5.945l-67.79,0Z" style="fill:#106eb8;fill-rule:nonzero;"/><path d="M660.788,308.846l6.323,0c-3.036,11.805 -8.452,20.762 -16.253,26.877c-7.8,6.112 -17.767,9.168 -29.91,9.168c-14.084,0 -25.758,-4.912 -35.033,-14.735c-9.275,-9.818 -13.912,-22.026 -13.912,-36.614c0,-15.851 5.059,-29.044 15.176,-39.587c10.12,-10.539 22.933,-15.808 38.449,-15.808c11.382,0 20.49,2.488 27.316,7.463c6.831,4.976 10.246,11.636 10.246,19.981c0,4.132 -1.222,7.463 -3.668,9.993c-2.444,2.528 -5.735,3.795 -9.864,3.795c-4.3,0 -7.736,-1.244 -10.307,-3.731c-2.575,-2.488 -3.859,-5.754 -3.859,-9.802c0,-3.708 1.116,-6.999 3.354,-9.864c2.233,-2.866 3.349,-4.427 3.349,-4.682c0,-2.276 -1.371,-4.049 -4.108,-5.312c-2.743,-1.264 -6.557,-1.896 -11.449,-1.896c-8.599,0 -14.838,2.635 -18.716,7.904c-3.879,5.27 -5.818,13.766 -5.818,25.484l0,37.815c0,7.673 1.979,13.495 5.944,17.456c3.963,3.963 9.82,5.941 17.58,5.941c7.924,0 15.216,-2.845 21.88,-8.536c6.66,-5.69 11.087,-12.792 13.28,-21.31" style="fill:#106eb8;fill-rule:nonzero;"/><path d="M738.775,277.23l0,-13.912c0,-6.494 -1.518,-11.278 -4.553,-14.358c-3.036,-3.076 -7.713,-4.617 -14.04,-4.617c-6.239,0 -10.92,1.581 -14.036,4.744c-3.123,3.163 -4.68,7.904 -4.68,14.231l0,13.912l37.309,0Zm22.766,31.616l6.196,0c-3.204,11.889 -8.771,20.869 -16.695,26.937c-7.927,6.073 -18.044,9.108 -30.352,9.108c-14.167,0 -25.992,-4.912 -35.477,-14.735c-9.486,-9.818 -14.227,-21.856 -14.227,-36.105c0,-15.264 4.845,-28.397 14.544,-39.4c9.693,-11.003 21.416,-16.504 35.16,-16.504c13.488,0 24.701,4.173 33.643,12.523c8.933,8.344 13.404,18.842 13.404,31.492l0,2.276l-66.271,0l0,30.857c0,7.084 2.065,12.755 6.195,17.012c4.133,4.259 9.656,6.385 16.57,6.385c8.683,0 16.396,-2.694 23.144,-8.09c6.743,-5.398 11.464,-12.65 14.166,-21.756" style="fill:#106eb8;fill-rule:nonzero;"/><path d="M31.111,348.963c0.071,-4.834 0.167,-10.166 0.278,-16.005c0.11,-5.837 0.168,-9.128 0.168,-9.869l0,-109.186c0,-0.818 -0.058,-4.109 -0.168,-9.869c-0.111,-5.761 -0.207,-11.135 -0.278,-16.116l72.38,0c-0.073,5.504 -0.204,11.113 -0.392,16.841c-0.186,5.724 -0.277,8.774 -0.277,9.144l0,109.186c0,0.297 0.091,3.326 0.277,9.088c0.188,5.764 0.319,11.361 0.392,16.786l-72.38,0Z" style="fill:#9f9fa0;fill-rule:nonzero;"/><path d="M159.478,349.185c0.073,-4.832 0.166,-10.164 0.281,-16.002c0.109,-5.838 0.167,-9.129 0.167,-9.87l0,-101.936c0,-0.743 -0.058,-3.996 -0.167,-9.76c-0.115,-5.76 -0.208,-9.535 -0.281,-14.443c-8.7,0.224 -17.454,-0.408 -26.263,0c-8.811,0.407 -13.404,0 -13.776,0c-2.229,0 -3.808,-0.335 -4.74,-1.004c-0.927,-0.668 -1.392,-1.785 -1.392,-3.347c0,-1.856 0.428,-3.122 1.281,-3.792c0.856,-0.668 2.732,-1.002 5.634,-1.002l150.67,0c2.902,0 4.779,0.334 5.635,1.002c0.852,0.67 1.283,1.936 1.283,3.792c0,1.562 -0.484,2.679 -1.451,3.347c-0.967,0.669 -2.565,1.004 -4.795,1.004c-0.301,0 -4.818,0.407 -13.552,0c-8.738,-0.408 -17.456,0.224 -26.152,0c-0.076,4.908 -0.166,8.683 -0.28,14.443c-0.11,5.764 -0.168,9.017 -0.168,9.76l0,101.936c0,0.741 0.058,4.032 0.168,9.87c0.114,5.838 0.204,11.17 0.28,16.002l-72.382,0Z" style="fill:#9f9fa0;fill-rule:nonzero;"/><path d="M466.499,101.489c-27.961,30.059 -58.752,56.65 -92.377,79.763c26.898,-49.184 47.077,-82.808 60.533,-100.887c26.896,-35.725 48.127,-53.596 63.684,-53.596c6.721,0 10.091,3.371 10.091,10.091c0,13.033 -13.983,34.579 -41.931,64.629m31.84,-78.501c-17.239,0 -41.831,16.293 -73.773,48.865c-31.503,32.127 -60.13,70.103 -85.904,113.866l-29.379,0c-2.419,0 -3.993,0.344 -4.681,1.016c-0.712,0.669 -1.08,1.929 -1.08,3.794c0,1.555 0.388,2.675 1.166,3.335c0.752,0.677 2.93,0.948 3.946,1.001c2.865,0.148 8.609,0 11.478,0l12.702,0l-45.706,83.491c-39.941,73.143 -65.15,117.911 -75.662,134.304c-13.027,20.592 -28.159,38.464 -45.402,53.596c-28.154,24.799 -56.117,37.203 -83.861,37.203c-6.72,0 -13.655,-1.054 -20.805,-3.152c-0.84,-0.426 -2.102,-0.632 -3.786,-0.632c-2.1,0 -3.153,1.045 -3.153,3.153c0,4.199 7.567,6.305 22.699,6.305c34.05,0 70.838,-16.393 110.345,-49.182c29.004,-23.96 54.444,-51.29 76.295,-81.97c21.853,-30.678 48.336,-76.294 79.45,-136.828l23.736,-46.288l57.163,0c2.825,0 8.483,0.144 11.304,0c1.027,-0.053 3.193,-0.324 3.992,-1.001c0.8,-0.66 1.208,-1.78 1.208,-3.335c0,-1.865 -0.364,-3.125 -1.076,-3.794c-0.713,-0.672 -2.268,-1.016 -4.685,-1.016l-60.43,0c40.696,-25.903 73.736,-52.396 98.994,-79.502c25.852,-27.744 38.777,-50.65 38.777,-68.729c0,-9.665 -4.631,-14.5 -13.872,-14.5" style="fill:#106eb8;fill-rule:nonzero;"/></g></svg>