<?xml version="1.0" encoding="UTF-8" standalone="no"?><!DOCTYPE svg PUBLIC "-//W3C//DTD SVG 1.1//EN" "http://www.w3.org/Graphics/SVG/1.1/DTD/svg11.dtd"><svg width="100%" height="100%" viewBox="0 0 1123 794" version="1.1" xmlns="http://www.w3.org/2000/svg" xmlns:xlink="http://www.w3.org/1999/xlink" xml:space="preserve" xmlns:serif="http://www.serif.com/" style="fill-rule:evenodd;clip-rule:evenodd;stroke-linejoin:round;stroke-miterlimit:1.41421;"><g id="图层-1" serif:id="图层 1"><path d="M539.812,405.553l0,46.16c0,16.368 2.567,28.03 7.7,34.988c5.124,6.964 13.549,10.44 25.279,10.44c11.72,0 20.145,-3.476 25.278,-10.44c5.124,-6.958 7.69,-18.62 7.69,-34.988l0,-46.16c0,-16.489 -2.566,-28.178 -7.69,-35.08c-5.133,-6.896 -13.558,-10.349 -25.278,-10.349c-11.73,0 -20.155,3.453 -25.279,10.349c-5.133,6.902 -7.7,18.591 -7.7,35.08m-44.329,23.264c0,-20.393 7.729,-38.377 23.166,-53.948c15.458,-15.568 33.492,-23.356 54.142,-23.356c20.629,0 38.682,7.788 54.121,23.356c15.459,15.571 23.177,33.555 23.177,53.948c0,20.398 -7.718,38.378 -23.177,53.947c-15.439,15.569 -33.492,23.356 -54.121,23.356c-20.65,0 -38.684,-7.787 -54.142,-23.356c-15.437,-15.569 -23.166,-33.549 -23.166,-53.947" style="fill:#fff;fill-rule:nonzero;"/><path d="M658.816,500.808l0,-8.611l25.461,0l0,-128.776l-25.461,0l0,-8.609l24,0c4.629,0 10.528,-0.277 17.665,-0.823c7.148,-0.553 14.683,-1.376 22.626,-2.476l0.193,36.456l2.925,0c6.228,-12.213 13.559,-21.341 21.986,-27.39c8.425,-6.044 18.014,-9.066 28.756,-9.066c8.3,0 14.924,2.17 19.873,6.504c4.951,4.334 7.42,10.164 7.42,17.492c0,6.227 -1.733,11.24 -5.221,15.022c-3.486,3.788 -8.096,5.681 -13.831,5.681c-6.953,0 -12.213,-1.468 -15.748,-4.399c-3.544,-2.929 -5.316,-7.262 -5.316,-13.006l0,-3.298c0,-2.682 -0.301,-4.605 -0.921,-5.768c-0.6,-1.161 -1.53,-1.742 -2.742,-1.742c-8.668,0 -16.918,5.65 -24.725,16.944c-7.827,11.297 -11.729,23.666 -11.729,37.094l0,70.16l32.977,0l0,8.611l-98.188,0Z" style="fill:#fff;fill-rule:nonzero;"/><path d="M938.101,453.912l9.153,0c-4.397,17.099 -12.243,30.072 -23.545,38.929c-11.294,8.852 -25.724,13.279 -43.312,13.279c-20.399,0 -37.31,-7.115 -50.752,-21.341c-13.424,-14.223 -20.146,-31.903 -20.146,-53.032c0,-22.959 7.323,-42.068 21.986,-57.338c14.653,-15.264 33.21,-22.896 55.69,-22.896c16.486,0 29.676,3.603 39.555,10.81c9.899,7.206 14.837,16.852 14.837,28.94c0,5.985 -1.761,10.808 -5.306,14.473c-3.546,3.663 -8.31,5.497 -14.287,5.497c-6.227,0 -11.204,-1.801 -14.924,-5.404c-3.739,-3.604 -5.599,-8.334 -5.599,-14.198c0,-5.371 1.628,-10.136 4.863,-14.287c3.235,-4.149 4.852,-6.411 4.852,-6.78c0,-3.297 -1.985,-5.864 -5.956,-7.693c-3.972,-1.832 -9.492,-2.747 -16.581,-2.747c-12.455,0 -21.483,3.816 -27.1,11.448c-5.618,7.632 -8.427,19.937 -8.427,36.911l0,54.77c0,11.115 2.868,19.546 8.601,25.284c5.744,5.738 14.228,8.604 25.472,8.604c11.468,0 22.035,-4.121 31.691,-12.362c9.647,-8.243 16.057,-18.528 19.235,-30.867" style="fill:#fff;fill-rule:nonzero;"/><path d="M1051.05,408.12l0,-20.151c0,-9.404 -2.199,-16.333 -6.596,-20.793c-4.398,-4.456 -11.167,-6.689 -20.33,-6.689c-9.046,0 -15.826,2.292 -20.338,6.872c-4.514,4.581 -6.78,11.448 -6.78,20.61l0,20.151l54.044,0Zm32.969,45.792l8.977,0c-4.638,17.22 -12.697,30.228 -24.184,39.016c-11.477,8.796 -26.13,13.192 -43.952,13.192c-20.522,0 -37.656,-7.113 -51.39,-21.341c-13.732,-14.223 -20.61,-31.656 -20.61,-52.296c0,-22.107 7.022,-41.128 21.075,-57.066c14.033,-15.937 31.012,-23.904 50.925,-23.904c19.526,0 35.778,6.044 48.718,18.138c12.94,12.086 19.418,27.292 19.418,45.612l0,3.297l-95.99,0l0,44.693c0,10.262 3.002,18.475 8.977,24.639c5.987,6.171 13.987,9.249 24.001,9.249c12.582,0 23.748,-3.902 33.52,-11.718c9.763,-7.816 16.602,-18.32 20.515,-31.511" style="fill:#fff;fill-rule:nonzero;"/><path d="M26.075,512.018c0.106,-7.001 0.252,-14.725 0.406,-23.181c0.156,-8.455 0.243,-13.222 0.243,-14.296l0,-158.142c0,-1.186 -0.087,-5.952 -0.243,-14.296c-0.154,-8.342 -0.3,-16.125 -0.406,-23.341l104.833,0c-0.096,7.972 -0.291,16.097 -0.561,24.393c-0.271,8.291 -0.407,12.707 -0.407,13.244l0,158.142c0,0.432 0.136,4.818 0.407,13.162c0.27,8.35 0.465,16.456 0.561,24.315l-104.833,0Z" style="fill:#fff;fill-rule:nonzero;"/><path d="M212.004,512.339c0.106,-6.998 0.242,-14.722 0.406,-23.178c0.164,-8.454 0.242,-13.221 0.242,-14.296l0,-147.642c0,-1.075 -0.078,-5.787 -0.242,-14.136c-0.164,-8.343 -0.3,-13.81 -0.406,-20.919c-12.6,0.324 -25.279,-0.592 -38.035,0c-12.765,0.589 -19.419,0 -19.952,0c-3.235,0 -5.52,-0.485 -6.876,-1.453c-1.336,-0.97 -2.015,-2.587 -2.015,-4.848c0,-2.688 0.62,-4.523 1.86,-5.491c1.239,-0.969 3.952,-1.453 8.155,-1.453l218.229,0c4.203,0 6.924,0.484 8.164,1.453c1.231,0.968 1.86,2.803 1.86,5.491c0,2.261 -0.706,3.878 -2.101,4.848c-1.395,0.968 -3.72,1.453 -6.945,1.453c-0.435,0 -6.983,0.589 -19.632,0c-12.648,-0.592 -25.278,0.324 -37.868,0c-0.116,7.109 -0.252,12.576 -0.407,20.919c-0.165,8.349 -0.252,13.061 -0.252,14.136l0,147.642c0,1.075 0.087,5.842 0.252,14.296c0.155,8.456 0.291,16.18 0.407,23.178l-104.844,0Z" style="fill:#fff;fill-rule:nonzero;"/><path d="M656.685,153.58c-40.495,43.536 -85.095,82.049 -133.792,115.527c38.953,-71.236 68.184,-119.939 87.67,-146.122c38.955,-51.744 69.715,-77.629 92.243,-77.629c9.733,0 14.615,4.883 14.615,14.616c0,18.877 -20.252,50.083 -60.736,93.608m46.121,-113.7c-24.969,0 -60.592,23.599 -106.848,70.775c-45.637,46.533 -87.091,101.536 -124.427,164.921l-42.548,0c-3.506,0 -5.792,0.499 -6.78,1.472c-1.036,0.969 -1.569,2.795 -1.569,5.496c0,2.253 0.563,3.875 1.687,4.829c1.093,0.983 4.241,1.375 5.713,1.452c4.156,0.214 12.475,0 16.631,0l18.392,0l-66.191,120.927c-57.859,105.937 -94.373,170.78 -109.597,194.524c-18.868,29.825 -40.776,55.711 -65.754,77.627c-40.785,35.918 -81.28,53.884 -121.464,53.884c-9.733,0 -19.777,-1.526 -30.141,-4.566c-1.209,-0.614 -3.04,-0.916 -5.481,-0.916c-3.042,0 -4.562,1.516 -4.562,4.568c0,6.082 10.954,9.134 32.882,9.134c49.317,0 102.596,-23.744 159.817,-71.238c42.005,-34.701 78.857,-74.285 110.499,-118.721c31.652,-44.436 70.016,-110.505 115.081,-198.181l34.384,-67.042l82.788,0c4.088,0 12.281,0.208 16.369,0c1.491,-0.077 4.63,-0.469 5.792,-1.452c1.152,-0.954 1.743,-2.576 1.743,-4.829c0,-2.701 -0.523,-4.527 -1.56,-5.496c-1.036,-0.973 -3.283,-1.472 -6.788,-1.472l-87.516,0c58.944,-37.516 106.789,-75.888 143.38,-115.148c37.444,-40.184 56.156,-73.361 56.156,-99.547c0,-14 -6.703,-21.001 -20.088,-21.001" style="fill:#fff;fill-rule:nonzero;"/></g></svg>