<?xml version="1.0" encoding="utf-8"?>
<!-- Generator: Adobe Illustrator 22.0.1, SVG Export Plug-In . SVG Version: 6.00 Build 0)  -->
<svg version="1.1" xmlns="http://www.w3.org/2000/svg" xmlns:xlink="http://www.w3.org/1999/xlink" x="0px" y="0px"
	 viewBox="0 0 100 125" style="enable-background:new 0 0 100 125;" xml:space="preserve">
<g id="Layer_2">
</g>
<g id="Layer_1">
	<path d="M87.8,19.5H12.2c-5.3,0-9.7,4.4-9.7,9.7v41.6c0,5.3,4.4,9.7,9.7,9.7h75.6c5.3,0,9.7-4.4,9.7-9.7V29.2
		C97.5,23.8,93.1,19.5,87.8,19.5z M30,32.2c4.7,0,8.6,3.8,8.6,8.6c0,4.7-3.8,8.6-8.6,8.6s-8.6-3.8-8.6-8.6
		C21.4,36.1,25.2,32.2,30,32.2z M16.6,63.9c0-5.9,2.2-11.1,5.6-14.3c2.1,1.8,4.8,3,7.8,3s5.7-1.1,7.8-3c3.4,3.2,5.6,8.4,5.6,14.3
		C43.3,69.1,16.6,69.1,16.6,63.9z M81.7,67.1H55.5c-1.3,0-2.4-1.1-2.4-2.4s1.1-2.4,2.4-2.4h26.2c1.3,0,2.4,1.1,2.4,2.4
		C84.1,66,83.1,67.1,81.7,67.1z M81.7,52.4H55.5c-1.3,0-2.4-1.1-2.4-2.4c0-1.3,1.1-2.4,2.4-2.4h26.2c1.3,0,2.4,1.1,2.4,2.4
		C84.1,51.3,83.1,52.4,81.7,52.4z M81.7,37.8H55.5c-1.3,0-2.4-1.1-2.4-2.4c0-1.3,1.1-2.4,2.4-2.4h26.2c1.3,0,2.4,1.1,2.4,2.4
		S83.1,37.8,81.7,37.8z"/>
</g>
</svg>
