<?xml version="1.0" encoding="utf-8"?>
<!-- Generator: Adobe Illustrator 22.0.1, SVG Export Plug-In . SVG Version: 6.00 Build 0)  -->
<svg version="1.1"
	 id="Layer_1" xmlns:cc="http://creativecommons.org/ns#" xmlns:dc="http://purl.org/dc/elements/1.1/" xmlns:inkscape="http://www.inkscape.org/namespaces/inkscape" xmlns:rdf="http://www.w3.org/1999/02/22-rdf-syntax-ns#" xmlns:sodipodi="http://sodipodi.sourceforge.net/DTD/sodipodi-0.dtd" xmlns:svg="http://www.w3.org/2000/svg"
	 xmlns="http://www.w3.org/2000/svg" xmlns:xlink="http://www.w3.org/1999/xlink" x="0px" y="0px" viewBox="0 0 100 125"
	 style="enable-background:new 0 0 100 125;" xml:space="preserve">
<style type="text/css">
	.st0{fill:#1AB394;}
</style>
<g transform="translate(16.994095,959.32871)">
	<path class="st0" d="M0-939.9v86h66v-70H52c-1.1,0-2-1-2-2v-14H0z M54-937.9v10h10L54-937.9z M43.8-921.8c0.8-0.1,1.7,0.3,2,1.1
		c0.4,0.7,0.2,1.7-0.3,2.3l-14,16c-0.7,0.7-1.9,0.9-2.7,0.3l-8-6c-0.9-0.6-1.1-1.9-0.4-2.8c0.6-0.9,2-1.1,2.8-0.4l6.6,4.9L42.6-921
		C42.8-921.5,43.3-921.8,43.8-921.8z M12-895.9h42c1.1,0,2,0.9,2,2s-0.9,2-2,2H12c-1.1,0-2-0.9-2-2S10.9-895.9,12-895.9z M12-879.9
		h42c1.1,0,2,0.9,2,2s-0.9,2-2,2H12c-1.1,0-2-0.9-2-2S10.9-879.9,12-879.9z M12-863.9h42c1.1,0,2,0.9,2,2s-0.9,2-2,2H12
		c-1.1,0-2-0.9-2-2S10.9-863.9,12-863.9z"/>
</g>
</svg>
