<?xml version="1.0" encoding="utf-8"?>
<!-- Generator: Adobe Illustrator 22.0.1, SVG Export Plug-In . SVG Version: 6.00 Build 0)  -->
<svg version="1.1" id="Layer_1" xmlns="http://www.w3.org/2000/svg" xmlns:xlink="http://www.w3.org/1999/xlink" x="0px" y="0px"
	 viewBox="0 0 154.8 109.8" style="enable-background:new 0 0 154.8 109.8;" xml:space="preserve">
<style type="text/css">
	.st0{fill:#919191;}
</style>
<path class="st0" d="M103.3,30c0-3.6,2.9-6.4,6.4-6.4s6.4,2.9,6.4,6.4s-2.9,6.4-6.4,6.4S103.3,33.6,103.3,30z M97.1,40.7
	c0-3,2.9-4.9,7.2-5.3c1.5,1.5,3.5,2.4,5.7,2.4c1.4,0,2.7-0.4,3.9-1c0.3,0.1,0.7,0.2,1.2,0.3c6,2.3,8.6,5.8,8.6,9.5v6
	c-11.8-5-17.3-7.8-26.5-8.5L97.1,40.7z M75.1,26.4c0-3.5,2.9-6.4,6.4-6.4c3.6,0,6.4,2.9,6.4,6.4c0,3.6-2.9,6.4-6.4,6.4
	C78,32.9,75.1,30,75.1,26.4z M67.3,40.8c0-3.5,4.1-6.6,9.8-7.6c1.2,0.7,2.6,1.2,4.2,1.2c1.6,0,3-0.4,4.3-1.2c5.9,1,10.2,4,10.2,7.7
	v3.2c-4.2-0.7-9.1-1.1-14.2-1.1s-10,0.4-14.2,1.1L67.3,40.8z M59.6,30c0,3.6-2.9,6.4-6.4,6.4s-6.4-2.9-6.4-6.4s2.9-6.4,6.4-6.4
	S59.6,26.4,59.6,30z M65.9,40.7V44c-9.1,0.7-14.6,3.5-26.5,8.5v-6c0-3.7,2.5-7.2,8.6-9.5c0.4-0.1,0.8-0.3,1.2-0.3
	c1.1,0.6,2.5,1,3.9,1c2.2,0,4.2-0.9,5.7-2.4C63,35.8,65.9,37.8,65.9,40.7z M63.8,72.7v-1.4c0-4.5,5.2-8.2,12.4-9.5
	c1.5,1.1,3.3,1.7,5.3,1.7s3.8-0.6,5.3-1.7c7.2,1.3,12.4,5,12.4,9.5v1.4c15.4-2.3,26.4-7.5,27.5-13.6c0.1,0.3,0.1,0.7,0.1,1
	c0,0.1,0,0.2,0,0.3s0,0.2,0,0.3s0,0.2,0,0.3s0,0.2,0,0.3s0,0.2,0,0.3s0,0.2,0,0.3s0,0.2,0,0.3s0,0.2,0,0.3
	c0,8.8-20.3,15.9-45.4,15.9C56.3,78.3,36,71.2,36,62.4c0-0.1,0-0.2,0-0.3s0-0.2,0-0.3s0-0.2,0-0.3s0-0.2,0-0.3s0-0.2,0-0.3
	s0-0.2,0-0.3s0-0.2,0-0.3s0-0.2,0-0.3c0-0.3,0-0.7,0.1-1C37.2,65.2,48.3,70.4,63.8,72.7z M73.5,53.6c0-4.4,3.6-8,8-8s8,3.6,8,8
	s-3.6,8-8,8C77.1,61.7,73.5,58.1,73.5,53.6z"/>
</svg>
