<?xml version="1.0" encoding="utf-8"?>
<!-- Generator: Adobe Illustrator 22.0.1, SVG Export Plug-In . SVG Version: 6.00 Build 0)  -->
<svg version="1.1" id="Layer_1" xmlns="http://www.w3.org/2000/svg" xmlns:xlink="http://www.w3.org/1999/xlink" x="0px" y="0px"
	 viewBox="0 0 100 125" style="enable-background:new 0 0 100 125;" xml:space="preserve">
<style type="text/css">
	.st0{fill:none;}
	.st1{fill:#919191;}
</style>
<polygon class="st0" points="34.5,58 65.5,58 69.4,55.2 30.6,55.2 "/>
<path class="st0" d="M22.3,49.2l8,5.8v-3.1h39.3V55l8-5.8V18.5H22.3V49.2z M30.5,27.3h16.2v3.3H30.5V27.3z M30.3,33.7h39.3V37H30.3
	V33.7z M30.3,39.7h39.3V43H30.3V39.7z M30.3,45.8h39.3v3.3H30.3V45.8z"/>
<path class="st1" d="M79,33.9V17.2H55.9L50,12.9l-5.9,4.3H21v16.7l-10,7.2v46h10.7h56.7H89v-46L79,33.9z M65.5,58h-31l-3.9-2.8h38.9
	L65.5,58z M77.7,49.2l-8,5.8v-3.1H30.3V55l-8-5.8V18.5h55.3L77.7,49.2L77.7,49.2z"/>
<rect x="30.5" y="27.3" class="st1" width="16.2" height="3.3"/>
<rect x="30.3" y="33.7" class="st1" width="39.3" height="3.3"/>
<rect x="30.3" y="39.7" class="st1" width="39.3" height="3.3"/>
<rect x="30.3" y="45.8" class="st1" width="39.3" height="3.3"/>
</svg>
